<?xml version="1.0" encoding="UTF-8"?>
<svg width="323.76021px" height="323.754023px" viewBox="0 0 323.76021 323.754023" version="1.1" xmlns="http://www.w3.org/2000/svg" xmlns:xlink="http://www.w3.org/1999/xlink">
    <title>xin-green</title>
    <g id="页面-1" stroke="none" stroke-width="1" fill="none" fill-rule="evenodd">
        <g id="xin-green" fill-rule="nonzero">
            <path d="M303.724825,303.719021 C307.209239,299.94431 309.82255,296.750324 311.27439,290.652715 C319.404691,249.421261 323.76021,205.286183 323.76021,161.73183 C323.76021,117.887115 319.404691,75.2038492 311.27439,33.9723952 C310.112918,28.1651482 307.209239,23.5193505 303.434457,19.4542776 C299.659674,16.2602917 296.175259,13.6470306 290.367901,12.4855811 C248.845291,4.35543528 206.16121,0 162.025289,0 C118.179736,0 75.2052864,4.35543528 33.6826766,12.4855811 C27.8753186,13.6470306 23.8101679,17.1313788 20.0353852,20.3253646 C16.8413383,24.1000752 13.6472914,27.8747858 12.4858198,33.9723952 C4.35551852,75.4942115 0,118.177478 0,162.022193 C0,205.866908 4.35551852,248.840536 12.4858198,290.07199 C13.6472914,295.879237 16.2606025,299.94431 20.0353852,304.299745 C23.5198,307.493731 27.5849507,310.106992 33.6826766,311.268442 C75.2052864,319.398588 117.889368,323.754023 161.734921,323.754023 C205.580474,323.754023 248.554923,319.398588 290.077533,311.268442 C296.175259,309.81663 300.24041,307.493731 303.724825,303.719021 Z" id="XMLID_201_" fill="#1A565B"></path>
            <g id="XMLID_192_" transform="translate(43, 44)" fill="#FFFFFF">
                <path d="M76.2041519,122.823275 L76.2041519,122.823275 L84.915189,122.823275 L207.740811,122.823275 C210.934858,122.823275 213.257802,119.919652 212.967434,117.016028 C212.677066,112.660593 212.09633,105.982259 212.09633,101.336461 C212.09633,98.4328373 209.483019,96.1099385 206.57934,96.1099385 L142.117666,96.1099385 L76.2041519,96.1099385 C73.010105,96.1099385 71.5582655,99.013562 71.5582655,100.465374 C71.5582655,102.497911 70.9775297,117.016028 70.9775297,117.016028 C70.9775297,120.500376 74.1715766,122.823275 76.2041519,122.823275 Z" id="XMLID_200_"></path>
                <path d="M237.648705,227.934447 C229.808772,206.737995 220.807367,179.153572 215.871113,141.696828 C215.580745,139.373929 213.257802,136.760668 210.354123,136.760668 L76.2041519,136.470306 C71.8486334,136.470306 69.2353223,140.245016 69.2353223,142.567915 C68.3642186,157.376395 62.5568606,194.833139 59.3628137,209.641619 C58.2013421,214.287416 61.9761248,218.352489 66.3316433,218.352489 L170.57372,218.352489 C175.219607,218.352489 177.54255,213.706691 176.961814,210.803068 L174.929239,198.607849 C174.058135,194.252414 170.57372,191.058428 165.927834,191.058428 L104.079471,191.058428 C100.01432,191.058428 97.6913766,187.283717 97.9817445,184.670456 C97.9817445,184.670456 100.01432,166.66799 100.01432,166.087266 C100.304688,163.764367 102.337263,160.860743 105.821678,160.860743 L175.509974,160.860743 C178.413653,160.860743 181.898068,162.89328 182.188436,166.958353 C184.801747,188.445167 189.447634,214.287416 194.383888,230.257346 C195.54536,234.612781 199.029774,235.77423 201.643086,235.77423 L231.260611,235.77423 C235.906498,236.354955 239.100545,231.709157 237.648705,227.934447 Z" id="XMLID_199_"></path>
                <path d="M207.160076,56.0399339 L74.7523124,56.0399339 C72.7197371,56.0399339 71.2678976,57.7821081 71.2678976,59.5242822 C71.5582655,65.6218916 71.8486334,78.1074727 71.8486334,79.2689221 C71.8486334,81.0110962 73.3004729,82.462908 75.3330482,82.462908 L170.57372,82.462908 L208.031179,82.462908 C210.354123,82.462908 212.09633,80.4303715 212.09633,78.397835 C212.09633,74.0423998 212.386698,66.2026163 212.677066,60.9760939 C212.386698,58.0724704 209.192651,56.0399339 207.160076,56.0399339 Z" id="XMLID_198_"></path>
                <path d="M58.7820779,69.6869645 C58.7820779,63.0086304 58.2013421,56.0399339 57.9109742,49.3615998 C57.6206063,46.167614 55.5880309,17.4217411 53.5554556,6.09760939 C52.9747198,2.90362352 49.7806729,0.290362352 47.1673618,0.290362352 L9.12916685,0.290362352 L9.12916685,0.290362352 C5.3543841,0.290362352 4.7736483,0.871087057 3.32180879,2.32289882 C2.16033719,3.48434823 2.16033719,5.80724704 2.74107299,9.58195759 L5.3543841,26.422974 C5.9351199,29.9073223 8.54843101,31.9398587 11.45211,31.9398587 L17.259468,31.9398587 C21.3246186,31.9398587 23.3571939,35.1338446 23.3571939,37.7471058 C23.3571939,45.8772516 23.3571939,54.5881222 23.066826,63.5893551 C23.066826,66.4929786 22.7764581,69.6869645 22.7764581,72.590588 C22.4860902,78.6881974 21.0342507,98.4328373 21.0342507,101.917186 C19.8727791,121.371464 16.3883643,143.14864 15.8076285,149.246249 C11.7424779,178.863209 5.9351199,207.028357 0.127761877,229.386258 C-0.743341828,233.741694 3.03144089,236.354955 5.644752,236.354955 L32.9393347,236.354955 C34.1008063,236.354955 39.6177964,235.483868 41.0696359,229.676621 C49.1999371,199.478936 54.4265593,167.539077 57.3302384,135.889581 C57.3302384,135.889581 57.6206063,131.243783 57.9109742,129.211247 C58.49171,123.113638 58.7820779,117.306391 59.0724458,111.208781 C59.3628137,107.143708 59.3628137,103.368998 59.6531816,99.3039244 C59.9435495,93.206315 59.9435495,86.8183432 59.9435495,80.7207339 C58.7820779,76.9460233 58.7820779,73.4616751 58.7820779,69.6869645 Z" id="XMLID_197_"></path>
                <path d="M70.106426,38.6181928 C70.106426,40.0700046 71.8486334,42.102541 74.1715766,42.102541 L205.998604,42.102541 C211.225226,42.102541 214.128905,37.7471058 214.128905,34.5531199 C214.709641,25.8422493 215.290377,14.2277553 215.871113,6.38797175 C216.161481,2.61326117 212.967434,1.33226763e-15 209.773387,1.33226763e-15 L209.773387,1.33226763e-15 L180.446229,1.33226763e-15 C177.832918,1.33226763e-15 176.09071,2.32289882 176.09071,3.77471058 L175.219607,12.1952188 C175.219607,13.9373929 173.767767,15.3892047 171.735192,15.3892047 L73.5908408,15.3892047 C70.106426,15.3892047 67.7834828,18.5831905 68.0738507,21.4868141 C68.9449544,26.7133364 69.8160581,33.6820328 70.106426,38.6181928 Z" id="XMLID_194_"></path>
            </g>
        </g>
    </g>
</svg>
